<?xml version="1.0" encoding="UTF-8" standalone="no"?>
<!DOCTYPE svg PUBLIC "-//W3C//DTD SVG 1.1//EN"
 "http://www.w3.org/Graphics/SVG/1.1/DTD/svg11.dtd">
<!-- Generated by graphviz version 2.43.0 (0)
 -->
<!-- Title: %3 Pages: 1 -->
<svg width="569pt" height="127pt"
 viewBox="0.00 0.00 568.89 127.44" xmlns="http://www.w3.org/2000/svg" xmlns:xlink="http://www.w3.org/1999/xlink">
<g id="graph0" class="graph" transform="scale(1 1) rotate(0) translate(4 123.44)">
<title>%3</title>
<polygon fill="white" stroke="transparent" points="-4,4 -4,-123.44 564.89,-123.44 564.89,4 -4,4"/>
<!-- &#45;1 -->
<g id="node1" class="node">
<title>&#45;1</title>
<polygon fill="lightgray" stroke="black" points="66.5,-107.08 42.49,-107.08 42.49,-90.08 66.5,-90.08 66.5,-107.08"/>
<text text-anchor="middle" x="54.5" y="-95.88" font-family="Times,serif" font-size="9.00">&#45;1</text>
</g>
<!-- &#45;2 -->
<g id="node2" class="node">
<title>&#45;2</title>
<polygon fill="lightgray" stroke="black" points="107.5,-107.08 83.49,-107.08 83.49,-90.08 107.5,-90.08 107.5,-107.08"/>
<text text-anchor="middle" x="95.5" y="-95.88" font-family="Times,serif" font-size="9.00">&#45;2</text>
</g>
<!-- 0 -->
<g id="node7" class="node">
<title>0</title>
<ellipse fill="lightblue" stroke="black" cx="174.5" cy="-20.86" rx="14.49" ry="14.49"/>
<text text-anchor="middle" x="174.5" y="-18.16" font-family="Times,serif" font-size="9.00">0</text>
</g>
<!-- &#45;2&#45;&gt;0 -->
<g id="edge1" class="edge">
<title>&#45;2&#45;&gt;0</title>
<path fill="none" stroke="red" stroke-width="0.14" d="M103.36,-90.04C115.77,-78.15 140.2,-54.73 156.94,-38.69"/>
<polygon fill="red" stroke="red" stroke-width="0.14" points="159.65,-40.94 164.45,-31.49 154.81,-35.88 159.65,-40.94"/>
</g>
<!-- 1 -->
<g id="node8" class="node">
<title>1</title>
<ellipse fill="lightblue" stroke="black" cx="14.5" cy="-20.86" rx="14.49" ry="14.49"/>
<text text-anchor="middle" x="14.5" y="-18.16" font-family="Times,serif" font-size="9.00">1</text>
</g>
<!-- &#45;2&#45;&gt;1 -->
<g id="edge2" class="edge">
<title>&#45;2&#45;&gt;1</title>
<path fill="none" stroke="red" stroke-width="0.17" d="M87.78,-89.77C84.1,-86.08 79.6,-81.64 75.5,-77.72 61.31,-64.19 44.91,-49.21 32.69,-38.17"/>
<polygon fill="red" stroke="red" stroke-width="0.17" points="34.75,-35.31 24.98,-31.22 30.06,-40.51 34.75,-35.31"/>
</g>
<!-- 140 -->
<g id="node11" class="node">
<title>140</title>
<ellipse fill="white" stroke="black" cx="67.5" cy="-20.86" rx="20.72" ry="20.72"/>
<text text-anchor="middle" x="67.5" y="-18.16" font-family="Times,serif" font-size="9.00">140</text>
</g>
<!-- &#45;2&#45;&gt;140 -->
<g id="edge5" class="edge">
<title>&#45;2&#45;&gt;140</title>
<path fill="none" stroke="green" stroke-width="0.3" d="M92.71,-90.04C89.29,-80.8 83.3,-64.61 78.02,-50.32"/>
<polygon fill="green" stroke="green" stroke-width="0.3" points="81.27,-49.01 74.52,-40.84 74.7,-51.44 81.27,-49.01"/>
</g>
<!-- 95 -->
<g id="node15" class="node">
<title>95</title>
<ellipse fill="white" stroke="black" cx="124.5" cy="-20.86" rx="17.86" ry="17.86"/>
<text text-anchor="middle" x="124.5" y="-18.16" font-family="Times,serif" font-size="9.00">95</text>
</g>
<!-- &#45;2&#45;&gt;95 -->
<g id="edge3" class="edge">
<title>&#45;2&#45;&gt;95</title>
<path fill="none" stroke="green" stroke-width="0.19" stroke-dasharray="1,5" d="M98.38,-90.04C102.15,-80.19 108.95,-62.45 114.66,-47.53"/>
<polygon fill="green" stroke="green" stroke-width="0.19" points="118.09,-48.38 118.4,-37.78 111.55,-45.87 118.09,-48.38"/>
</g>
<!-- &#45;3 -->
<g id="node3" class="node">
<title>&#45;3</title>
<polygon fill="lightgray" stroke="black" points="253.5,-107.08 229.49,-107.08 229.49,-90.08 253.5,-90.08 253.5,-107.08"/>
<text text-anchor="middle" x="241.5" y="-95.88" font-family="Times,serif" font-size="9.00">&#45;3</text>
</g>
<!-- &#45;4 -->
<g id="node4" class="node">
<title>&#45;4</title>
<polygon fill="lightgray" stroke="black" points="294.5,-107.08 270.49,-107.08 270.49,-90.08 294.5,-90.08 294.5,-107.08"/>
<text text-anchor="middle" x="282.5" y="-95.88" font-family="Times,serif" font-size="9.00">&#45;4</text>
</g>
<!-- &#45;5 -->
<g id="node5" class="node">
<title>&#45;5</title>
<polygon fill="lightgray" stroke="black" points="335.5,-107.08 311.49,-107.08 311.49,-90.08 335.5,-90.08 335.5,-107.08"/>
<text text-anchor="middle" x="323.5" y="-95.88" font-family="Times,serif" font-size="9.00">&#45;5</text>
</g>
<!-- &#45;6 -->
<g id="node6" class="node">
<title>&#45;6</title>
<polygon fill="lightgray" stroke="black" points="212.5,-107.08 188.49,-107.08 188.49,-90.08 212.5,-90.08 212.5,-107.08"/>
<text text-anchor="middle" x="200.5" y="-95.88" font-family="Times,serif" font-size="9.00">&#45;6</text>
</g>
<!-- &#45;6&#45;&gt;0 -->
<g id="edge4" class="edge">
<title>&#45;6&#45;&gt;0</title>
<path fill="none" stroke="red" stroke-width="0.14" stroke-dasharray="1,5" d="M197.91,-90.04C194.32,-79.59 187.67,-60.23 182.37,-44.8"/>
<polygon fill="red" stroke="red" stroke-width="0.14" points="185.53,-43.23 178.98,-34.91 178.91,-45.5 185.53,-43.23"/>
</g>
<!-- 160 -->
<g id="node9" class="node">
<title>160</title>
<ellipse fill="white" stroke="black" cx="227.5" cy="-20.86" rx="20.72" ry="20.72"/>
<text text-anchor="middle" x="227.5" y="-18.16" font-family="Times,serif" font-size="9.00">160</text>
</g>
<!-- &#45;6&#45;&gt;160 -->
<g id="edge6" class="edge">
<title>&#45;6&#45;&gt;160</title>
<path fill="none" stroke="green" stroke-width="0.26" d="M203.18,-90.04C206.48,-80.8 212.25,-64.61 217.35,-50.32"/>
<polygon fill="green" stroke="green" stroke-width="0.26" points="220.66,-51.44 220.73,-40.84 214.07,-49.09 220.66,-51.44"/>
</g>
<!-- 138 -->
<g id="node10" class="node">
<title>138</title>
<ellipse fill="white" stroke="black" cx="374.5" cy="-98.58" rx="20.72" ry="20.72"/>
<text text-anchor="middle" x="374.5" y="-95.88" font-family="Times,serif" font-size="9.00">138</text>
</g>
<!-- 79 -->
<g id="node12" class="node">
<title>79</title>
<ellipse fill="white" stroke="black" cx="431.5" cy="-98.58" rx="17.86" ry="17.86"/>
<text text-anchor="middle" x="431.5" y="-95.88" font-family="Times,serif" font-size="9.00">79</text>
</g>
<!-- 80 -->
<g id="node13" class="node">
<title>80</title>
<ellipse fill="white" stroke="black" cx="484.5" cy="-98.58" rx="17.86" ry="17.86"/>
<text text-anchor="middle" x="484.5" y="-95.88" font-family="Times,serif" font-size="9.00">80</text>
</g>
<!-- 111 -->
<g id="node14" class="node">
<title>111</title>
<ellipse fill="white" stroke="black" cx="540.5" cy="-98.58" rx="20.29" ry="20.29"/>
<text text-anchor="middle" x="540.5" y="-95.88" font-family="Times,serif" font-size="9.00">111</text>
</g>
</g>
</svg>
